<svg width="256" height="256" viewBox="0 0 256 256" fill="none" xmlns="http://www.w3.org/2000/svg">
<g clip-path="url(#clip0_437_3828)">
<path d="M159.73 243.975C223.289 226.945 261.008 161.614 243.978 98.055C226.947 34.4961 161.616 -3.22262 98.0573 13.8079C34.4984 30.8385 -3.22036 96.1692 13.8102 159.728C30.8408 223.287 96.1715 261.006 159.73 243.975Z" fill="#232A4C"/>
<path d="M200.198 197.606C238.16 158.213 236.999 95.5048 197.607 57.5431C158.214 19.5814 95.5053 20.7417 57.5436 60.1346C19.5819 99.5276 20.7422 162.236 60.1351 200.198C99.5281 238.159 162.236 236.999 200.198 197.606Z" fill="url(#paint0_linear_437_3828)"/>
<path d="M198.972 196.356C236.136 157.791 235 96.4005 196.435 59.2364C157.869 22.0724 96.4787 23.2082 59.3147 61.7735C22.1506 100.339 23.2865 161.729 61.8517 198.894C100.417 236.058 161.808 234.922 198.972 196.356Z" fill="url(#paint1_linear_437_3828)"/>
<path d="M215.06 105.723C202.432 58.5947 153.424 30.6216 105.804 43.3816C58.1828 56.1416 29.7278 104.871 42.3559 151.999C54.9869 199.139 104.002 227.098 151.612 214.341C199.222 201.584 227.691 152.863 215.06 105.723ZM173.504 196.855C173.375 197.496 173.516 198.112 173.803 198.642C167.433 202.716 160.395 205.91 152.826 208.2L144.664 177.739C156.393 175.999 167.305 175.918 175.994 176.42C175.075 188.727 173.551 196.581 173.501 196.844L173.504 196.855ZM181.478 176.842C188.969 177.535 194.005 178.528 195.292 178.802C190.775 184.722 185.487 190.1 179.46 194.688C180.022 191.183 180.87 184.974 181.467 176.845L181.478 176.842ZM124.104 208.76C117.984 202.466 112.749 195.888 108.204 189.149C118.422 183.878 129.032 180.607 139.208 178.677L147.504 209.638C139.827 211.433 132.121 212.178 124.593 211.84C125.082 210.841 124.943 209.605 124.115 208.757L124.104 208.76ZM119.024 211.37C108.446 210.184 98.2941 207.005 89.069 202.126C93.6338 198.132 98.4435 194.738 103.373 191.835C107.858 198.531 113.039 205.088 119.027 211.381L119.024 211.37ZM47.1076 147.895C42.7889 129.357 45.0799 110.688 52.6247 94.4536C52.6501 94.4587 52.656 94.4809 52.6814 94.486C60.949 96.9568 68.7291 98.5949 76.1102 99.6856C76.3463 111.373 77.6312 124.778 80.8502 138.854L47.1076 147.895ZM81.6205 100.386C95.216 101.845 107.313 101.209 117.875 99.1514L125.321 126.938L86.1638 137.43C83.1477 124.156 81.8962 111.504 81.6205 100.386ZM84.7533 58.3585C90.8186 54.6282 97.4604 51.6591 104.572 49.5037L116.469 93.9025C105.507 95.9479 93.816 96.2616 81.5524 94.8853C81.6092 74.2465 84.7681 60.1624 84.8559 59.8177C84.9724 59.3108 84.9006 58.8186 84.7421 58.3615L84.7533 58.3585ZM140.131 49.348C147.559 57.2056 153.494 65.8559 158.294 74.8933C154.935 77.6013 151.095 80.3548 146.631 82.9306C138.96 87.3527 130.669 90.6211 121.882 92.7613L109.911 48.085C119.919 45.7485 129.947 45.2381 139.623 46.4633C139.22 47.4274 139.388 48.548 140.131 49.348ZM126.736 132.22L137.717 173.201C127.065 175.282 115.924 178.815 105.144 184.498C96.6461 170.766 91.0584 156.504 87.4558 142.745L126.736 132.22ZM143.178 172.238L132.072 130.79L173.359 119.728C176.817 138.818 177.047 156.942 176.328 170.848C167.151 170.274 155.631 170.328 143.178 172.238ZM130.657 125.508L123.262 97.9103C123.837 97.7682 124.446 97.6644 125.017 97.5113C140.297 93.4171 152.073 86.5153 160.739 79.7569C166.143 91.047 169.846 102.805 172.294 114.363L130.66 125.519L130.657 125.508ZM165.115 76.1343C172.146 69.9566 176.494 64.3909 178.347 61.7536C192.522 72.0136 203.473 86.7414 208.882 104.548L177.594 112.932C174.978 100.657 170.985 88.132 165.115 76.1343ZM173.777 58.7322C172.241 60.9395 168.568 65.7059 162.568 71.2029C158.059 62.8961 152.571 54.9231 145.906 47.5389C155.858 49.5702 165.279 53.3853 173.774 58.7211L173.777 58.7322ZM78.7443 62.4782C77.7618 68.0936 76.1702 79.4622 76.0923 94.148C69.2915 93.1158 62.3316 91.5791 55.2371 89.4957C60.994 79.0091 68.9546 69.7518 78.7555 62.4752L78.7443 62.4782ZM48.5229 153.177L82.1422 144.169C85.8578 158.35 91.6063 173.033 100.341 187.201C94.9014 190.442 89.5801 194.259 84.5111 198.792C84.3473 198.943 84.2544 199.135 84.1302 199.299C67.5267 189.035 54.5513 173.03 48.5199 153.166L48.5229 153.177ZM198.367 174.493C197.997 174.057 197.528 173.695 196.927 173.559C196.159 173.384 190.52 172.112 181.811 171.27C182.552 156.906 182.301 138.122 178.673 118.304L210.297 109.83C215.645 132.839 210.729 156.016 198.367 174.493Z" fill="white"/>
<path d="M107.098 122.379C111.677 121.152 113.273 112.258 110.662 102.514C108.051 92.7696 102.222 85.8649 97.6428 87.0918C93.0637 88.3188 91.4682 97.2129 94.0792 106.957C96.6902 116.702 102.519 123.606 107.098 122.379Z" fill="#232A4C"/>
<path d="M149.054 92.2269C151.662 101.961 150.067 110.866 145.49 112.092C140.913 113.319 135.084 106.421 132.471 96.6702C129.858 86.9197 131.458 78.0311 136.035 76.8047C140.611 75.5784 146.441 82.4764 149.054 92.2269Z" fill="#232A4C"/>
<path d="M176.782 117.339C175.102 111.07 178.817 104.636 185.085 102.957C191.353 101.277 197.787 104.992 199.467 111.26" stroke="#232A4C" stroke-width="5.13308" stroke-miterlimit="10"/>
<path d="M60.5404 148.485C58.8609 142.217 62.5755 135.783 68.8437 134.103C75.1119 132.424 81.5457 136.138 83.2253 142.407" stroke="#232A4C" stroke-width="5.13308" stroke-miterlimit="10"/>
<path d="M185.006 103.543C193.591 135.581 174.581 168.507 142.527 177.096C110.473 185.685 77.5629 166.67 68.9785 134.633" stroke="#232A4C" stroke-width="5.13308" stroke-miterlimit="10"/>
</g>
<defs>
<linearGradient id="paint0_linear_437_3828" x1="122.198" y1="100.693" x2="393.099" y2="294.008" gradientUnits="userSpaceOnUse">
<stop stop-color="#FFE91E"/>
<stop offset="1" stop-color="#9EE1A8"/>
</linearGradient>
<linearGradient id="paint1_linear_437_3828" x1="108.903" y1="87.3146" x2="290.164" y2="289.631" gradientUnits="userSpaceOnUse">
<stop stop-color="#FFE91E"/>
<stop offset="1" stop-color="#FFD600"/>
</linearGradient>
<clipPath id="clip0_437_3828">
<rect width="256" height="256" fill="white"/>
</clipPath>
</defs>
</svg>
